<svg xmlns="http://www.w3.org/2000/svg" width="122" height="38" fill="none"><g fill="#2E2E2E" opacity=".7"><path fill-rule="evenodd" d="M28.056 13.792v13.792H14.22l-3.388-3.376H7.634l6.203 6.182V38L0 24.208V10.416h13.837l3.388 3.376h3.197L14.219 7.61V0zm-21.52.666 9.114 9.084h5.87l-9.114-9.084z" clip-rule="evenodd"/><path d="M42.174 25.5v-1.869h3.08q.825 0 1.28-.505.471-.505.471-1.195 0-.471-.202-.858a1.44 1.44 0 0 0-.606-.606q-.387-.236-.943-.236h-3.08V18.38h2.828q.706 0 1.128-.353.438-.355.438-1.06 0-.724-.438-1.078-.42-.354-1.128-.354h-2.828v-1.868h3.097q1.178 0 1.97.438.808.42 1.212 1.128.405.69.404 1.515 0 1.01-.623 1.75-.606.724-1.784 1.078l.1-.741q1.314.37 2.02 1.229.725.84.725 2.037 0 .942-.472 1.717-.455.757-1.346 1.229-.876.454-2.138.454zm-1.683 0V13.666h2.272V25.5zm10.384 0v-8.13h2.205v8.13zm2.205-4.495-.859-.572q.151-1.498.876-2.357.723-.875 2.087-.875.59 0 1.06.202.471.185.859.623l-1.38 1.582a1.16 1.16 0 0 0-.455-.303 1.6 1.6 0 0 0-.589-.1q-.706-.001-1.162.454-.437.437-.437 1.346m4.798 4.495v-8.13H60.1v8.13zm1.11-9.444a1.2 1.2 0 0 1-.892-.353 1.27 1.27 0 0 1-.353-.91q0-.52.353-.891a1.18 1.18 0 0 1 .893-.37q.555 0 .892.37.353.37.353.892 0 .539-.353.909-.337.354-.892.353Zm6.466 13.046q-1.297 0-2.29-.47a3.84 3.84 0 0 1-1.582-1.297l1.397-1.397q.471.555 1.044.841.588.303 1.414.303 1.026 0 1.616-.521.606-.521.606-1.448v-2.037l.37-1.784-.353-1.785V17.37h2.188v7.71q0 1.213-.572 2.104a3.8 3.8 0 0 1-1.55 1.414q-.992.505-2.288.505Zm-.101-3.82q-1.095 0-1.97-.523a3.85 3.85 0 0 1-1.38-1.464q-.489-.926-.489-2.07 0-1.145.489-2.055a3.76 3.76 0 0 1 1.38-1.43 3.7 3.7 0 0 1 1.97-.539q.909 0 1.599.354.706.352 1.11.976.405.605.439 1.43v2.56a2.8 2.8 0 0 1-.455 1.447q-.405.622-1.111.977-.69.336-1.582.336Zm.437-2.004q.606 0 1.044-.252.455-.27.707-.724.252-.472.252-1.06 0-.607-.252-1.061a1.8 1.8 0 0 0-.707-.707q-.438-.27-1.044-.27c-.606 0-.757.09-1.06.27a1.76 1.76 0 0 0-.707.723 2.1 2.1 0 0 0-.253 1.044q0 .573.253 1.044.252.454.707.724t1.06.269M77.272 25.5v-4.663q0-.723-.454-1.178-.455-.455-1.178-.455a1.73 1.73 0 0 0-.842.202 1.5 1.5 0 0 0-.59.573 1.76 1.76 0 0 0-.201.858l-.859-.438q0-.96.404-1.666a2.9 2.9 0 0 1 1.111-1.128q.725-.405 1.65-.404c.925.001 1.162.135 1.633.404q.723.405 1.128 1.111.404.707.404 1.633V25.5zm-5.47 0V13.33h2.205V25.5zm10.549 0V13.986h2.205V25.5H82.35Zm-1.903-6.195V17.37h6.01v1.936h-6.01Zm7.486 6.195V13.666h2.29V25.5zm7.424 0V13.666h2.289V25.5h-2.29Zm-5.977-5.1v-2.02h6.616v2.02h-6.615Zm10.45 5.1v-8.13h2.221v8.13H99.83Zm1.11-9.444a1.2 1.2 0 0 1-.892-.353 1.27 1.27 0 0 1-.353-.91q0-.52.353-.891c.353-.371.533-.37.892-.37q.556 0 .892.37.354.37.354.892 0 .539-.354.909-.336.354-.892.353m5.708 9.444-3.586-8.13h2.424l2.576 6.7h-1.196l2.593-6.7h2.34l-3.569 8.13zm9.81.168q-1.28 0-2.272-.538a4.27 4.27 0 0 1-1.583-1.515q-.572-.96-.572-2.189 0-1.212.555-2.154a4.2 4.2 0 0 1 1.549-1.515 4.2 4.2 0 0 1 2.172-.573q1.177 0 2.07.539.909.521 1.414 1.448.522.909.522 2.07 0 .219-.034.455a3 3 0 0 1-.084.505l-6.834.016v-1.65l5.807-.016-.892.69q-.033-.723-.269-1.212a1.57 1.57 0 0 0-.657-.74q-.42-.27-1.043-.27-.657 0-1.145.303a1.93 1.93 0 0 0-.758.825q-.252.522-.252 1.246 0 .74.269 1.296.286.539.808.841.522.287 1.212.287.623 0 1.128-.202a2.45 2.45 0 0 0 .875-.64l1.297 1.296q-.59.69-1.448 1.044a4.7 4.7 0 0 1-1.835.353"/></g></svg>